<?xml version="1.0" encoding="UTF-8" standalone="no"?>
<!-- Created with Inkscape (http://www.inkscape.org/) -->

<svg
   version="1.1"
   id="svg1"
   width="26.4"
   height="26.4"
   viewBox="0 0 26.4 26.4"
   sodipodi:docname="BOR_VP_Icon_Vector.ai"
   xmlns:inkscape="http://www.inkscape.org/namespaces/inkscape"
   xmlns:sodipodi="http://sodipodi.sourceforge.net/DTD/sodipodi-0.dtd"
   xmlns="http://www.w3.org/2000/svg"
   xmlns:svg="http://www.w3.org/2000/svg">
  <defs
     id="defs1" />
  <sodipodi:namedview
     id="namedview1"
     pagecolor="#ffffff"
     bordercolor="#000000"
     borderopacity="0.25"
     inkscape:showpageshadow="2"
     inkscape:pageopacity="0.0"
     inkscape:pagecheckerboard="0"
     inkscape:deskcolor="#d1d1d1">
    <inkscape:page
       x="0"
       y="0"
       inkscape:label="1"
       id="page1"
       width="26.4"
       height="26.4"
       margin="0"
       bleed="0" />
  </sodipodi:namedview>
  <g
     id="layer-MC0"
     inkscape:groupmode="layer"
     inkscape:label="Warstwa 2">
    <path
       id="path1"
       d="m 0,0 -1.281,-6.8 -3.3,2 2.2,-3.6 -7.5,-1.48 v -0.039 l 7.3,-1.381 -2,-3.2 3.199,2 1.401,-7.3 1.5,7.6 3.7,-2.3 -2.101,3.3 6.801,1.281 V -9.9 l -7.1,1.4 2.3,3.7 -3.7,-2.3 L 0.038,0 Z m 0.119,-3.1 1.1,-5.5 -1.1,-1.1 z m -1.501,-5.6 1.101,-1.1 h -6.6 z M 0.319,-10 h 6.6 l -5.5,-1.1 z m -1.5,-1.3 1.1,1.2 v -6.6 -0.1 z"
       style="fill:#833718;fill-opacity:1;fill-rule:nonzero;stroke:none"
       transform="matrix(1.3333333,0,0,-1.3333333,13.174933,0)" />
  </g>
</svg>
